<svg width="24" height="25" viewBox="0 0 24 25" fill="none" xmlns="http://www.w3.org/2000/svg">
<path d="M5.60003 18.259C4.60003 17.399 3.69003 16.339 2.89003 15.089C1.99003 13.679 1.99003 11.309 2.89003 9.89898C4.07003 8.04898 5.51003 6.59898 7.12003 5.62898M17.82 6.26998C16.07 4.94998 14.07 4.22998 12 4.22998M8.42203 20.03C9.56203 20.51 10.772 20.77 12.002 20.77C15.532 20.77 18.822 18.69 21.112 15.09C22.012 13.68 22.012 11.31 21.112 9.89998C20.782 9.37998 20.422 8.88998 20.052 8.42998M14.532 9.97198L9.47203 15.032C9.13978 14.6997 8.87623 14.3053 8.69642 13.8712C8.51661 13.4371 8.42407 12.9718 8.42407 12.502C8.42407 12.0321 8.51661 11.5669 8.69642 11.1328C8.87623 10.6987 9.13978 10.3042 9.47203 9.97198C9.80427 9.63974 10.1987 9.37619 10.6328 9.19638C11.0669 9.01657 11.5322 8.92402 12.002 8.92402C12.4719 8.92402 12.9372 9.01657 13.3713 9.19638C13.8054 9.37619 14.1998 9.63974 14.532 9.97198V9.97198Z" stroke="black" stroke-width="1.5" stroke-linecap="round" stroke-linejoin="round"/>
<path d="M15.511 13.2C15.3755 13.8976 15.0347 14.5387 14.5322 15.0412C14.0297 15.5437 13.3886 15.8845 12.691 16.02M9.47 15.031L2 22.501M22.001 2.5L14.531 9.97" stroke="black" stroke-width="1.5" stroke-linecap="round" stroke-linejoin="round"/>
</svg>
