<svg width="24" height="25" viewBox="0 0 24 25" fill="none" xmlns="http://www.w3.org/2000/svg">
<path d="M6 10.5V8.5C6 5.19 7 2.5 12 2.5C17 2.5 18 5.19 18 8.5V10.5M9.5 16.5C9.5 17.163 9.76339 17.7989 10.2322 18.2678C10.7011 18.7366 11.337 19 12 19C12.663 19 13.2989 18.7366 13.7678 18.2678C14.2366 17.7989 14.5 17.163 14.5 16.5C14.5 15.837 14.2366 15.2011 13.7678 14.7322C13.2989 14.2634 12.663 14 12 14" stroke="black" stroke-width="1.5" stroke-linecap="round" stroke-linejoin="round"/>
<path d="M22 17.5V15.5C22 11.5 21 10.5 17 10.5H7C3 10.5 2 11.5 2 15.5V17.5C2 21.5 3 22.5 7 22.5H17C18.76 22.5 19.94 22.31 20.71 21.75" stroke="black" stroke-width="1.5" stroke-linecap="round" stroke-linejoin="round"/>
</svg>
