<svg width="24" height="25" viewBox="0 0 24 25" fill="none" xmlns="http://www.w3.org/2000/svg">
<path d="M3 5.47C3 3.83 4.34 2.5 6 2.5H18C19.66 2.5 21 3.83 21 5.47V16.38C21 18.02 19.66 19.35 18 19.35H17.24C16.44 19.35 15.68 19.66 15.12 20.22L13.41 21.91C12.63 22.68 11.36 22.68 10.58 21.91L8.87 20.22C8.31 19.66 7.54 19.35 6.75 19.35H6C4.34 19.35 3 18.02 3 16.38V9.53" stroke="black" stroke-width="1.5" stroke-miterlimit="10" stroke-linecap="round" stroke-linejoin="round"/>
<path d="M16 16.158C16 14.358 14.21 12.898 12 12.898C9.79 12.898 8 14.358 8 16.158M12.002 10.5C12.308 10.5 12.611 10.4397 12.8937 10.3226C13.1763 10.2055 13.4332 10.0339 13.6496 9.81752C13.8659 9.60116 14.0375 9.34431 14.1546 9.06162C14.2717 8.77893 14.332 8.47595 14.332 8.16997C14.332 7.86399 14.2717 7.561 14.1546 7.27831C14.0375 6.99562 13.8659 6.73877 13.6496 6.52241C13.4332 6.30605 13.1763 6.13442 12.8937 6.01733C12.611 5.90023 12.308 5.83997 12.002 5.83997C11.384 5.83997 10.7914 6.08545 10.3544 6.52241C9.91748 6.95937 9.672 7.55201 9.672 8.16997C9.672 8.78792 9.91748 9.38057 10.3544 9.81752C10.7914 10.2545 11.384 10.5 12.002 10.5V10.5Z" stroke="black" stroke-width="1.5" stroke-linecap="round" stroke-linejoin="round"/>
</svg>
